<svg xmlns="http://www.w3.org/2000/svg" width="200" height="200" viewBox="0 0 100 100">
<g class="odd" fill="#404040" stroke-width="0">
    <path d="M 0,10 10,0 0,0 z"/>
    <path d="M 0,30 30,0 20,0 0,20 z"/>
    <path d="M 0,50 50,0 40,0 0,40 z"/>
    <path d="M 0,70 70,0 60,0 0,60 z"/>
    <path d="M 0,90 90,0 80,0 0,80 z"/>
    <path d="M 10,100 100,10 100,0 0,100 z"/>
    <path d="M 30,100 100,30 100,20 20,100 z"/>
    <path d="M 50,100 100,50 100,40 40,100 z"/>
    <path d="M 70,100 100,70 100,60 60,100 z"/>
    <path d="M 90,100 100,90 100,80 80,100 z"/>
</g>
<g class="even" fill="#e0e0e0" stroke-width="0">
    <path d="M 0,20 20,0 10,0 0,10 z"/>
    <path d="M 0,40 40,0 30,0 0,30 z"/>
    <path d="M 0,60 60,0 50,0 0,50 z"/>
    <path d="M 0,80 80,0 70,0 0,70 z"/>
    <path d="M 0,100 100,0 90,0 0,90 z"/>
    <path d="M 20,100 100,20 100,10 10,100 z"/>
    <path d="M 40,100 100,40 100,30 30,100 z"/>
    <path d="M 60,100 100,60 100,50 50,100 z"/>
    <path d="M 80,100 100,80 100,70 70,100 z"/>
    <path d="M 100,100 100,100 100,90 90,100 z"/>
</g>
</svg>
